<?xml version="1.0" encoding="utf-8"?>
<!-- Uploaded to: SVG Repo, www.svgrepo.com, Generator: SVG Repo Mixer Tools -->
<svg width="800px" height="800px" viewBox="0 0 1024 1024" class="icon"  version="1.1" xmlns="http://www.w3.org/2000/svg"><path d="M298.4 769.1c-76.9 0-139.8-62.9-139.8-139.8s62.9-139.8 139.8-139.8h163.7v-71.4H303.2c-116.1 0-211.1 95-211.1 211.1s95 211.1 211.1 211.1h158.9v-71.4H298.4z" fill="#FAFCFB" /><path d="M462.1 853.7H303.2c-59.7 0-116-23.4-158.5-65.9-42.5-42.5-65.9-98.8-65.9-158.5s23.4-116 65.9-158.5c42.5-42.5 98.8-65.9 158.5-65.9h158.9c7.3 0 13.3 5.9 13.3 13.3v71.4c0 7.3-5.9 13.3-13.3 13.3H298.4c-33.6 0-65.4 13.2-89.3 37.2-24 24-37.2 55.7-37.2 89.3 0 33.6 13.2 65.4 37.2 89.3 24 24 55.7 37.2 89.3 37.2h163.7c7.3 0 13.3 5.9 13.3 13.3v71.4c0 7.2-5.9 13.1-13.3 13.1zM303.2 431.4c-52.6 0-102.2 20.6-139.7 58.1-37.5 37.5-58.1 87.1-58.1 139.7 0 52.6 20.6 102.2 58.1 139.7C201 806.4 250.6 827 303.2 827h145.6v-44.8H298.4c-84.4 0-153.1-68.7-153.1-153.1S214 476.2 298.4 476.2h150.5v-44.8H303.2z" fill="#0F0F0F" /><path d="M814.6 1002.3H442c-64.1 0-116-51.9-116-116V277.9c0-18.7 15.1-33.8 33.8-33.8h537c18.7 0 33.8 15.1 33.8 33.8v608.4c0 64.1-51.9 116-116 116z" fill="#FAFCFB" /><path d="M812.1 1015.6H444.5c-72.7 0-131.8-59.1-131.8-131.8V278.6c0-26.4 21.4-47.8 47.8-47.8H896c26.4 0 47.8 21.4 47.8 47.8v605.2c0.1 72.7-59 131.8-131.7 131.8zM360.6 257.4c-11.7 0-21.2 9.5-21.2 21.2v605.2c0 58 47.2 105.2 105.2 105.2h367.6c58 0 105.2-47.2 105.2-105.2V278.6c0-11.7-9.5-21.2-21.2-21.2H360.6z" fill="#0F0F0F" /><path d="M531.9 575.8c-7.3 0-13.3-5.9-13.3-13.3 0-30.5-24.8-55.2-55.2-55.2-30.5 0-55.2 24.8-55.2 55.2 0 7.3-5.9 13.3-13.3 13.3s-13.3-5.9-13.3-13.3c0-45.1 36.7-81.8 81.8-81.8 45.1 0 81.8 36.7 81.8 81.8 0 7.4-6 13.3-13.3 13.3zM861.7 575.8c-7.3 0-13.3-5.9-13.3-13.3 0-30.5-24.8-55.2-55.2-55.2-30.5 0-55.2 24.8-55.2 55.2 0 7.3-5.9 13.3-13.3 13.3s-13.3-5.9-13.3-13.3c0-45.1 36.7-81.8 81.8-81.8s81.8 36.7 81.8 81.8c0 7.4-5.9 13.3-13.3 13.3z" fill="#0F0F0F" /><path d="M511.3 678.4c0 55.9 52.7 101.6 117 101.6 64.4 0 117-45.7 117-101.6v-33.9h-234v33.9z" fill="#5B5143" /><path d="M628.3 793.3c-71.8 0-130.3-51.5-130.3-114.9v-33.9c0-7.3 5.9-13.3 13.3-13.3h234c7.3 0 13.3 5.9 13.3 13.3v33.9c0 63.4-58.4 114.9-130.3 114.9zM524.6 657.8v20.6c0 23.1 10.6 45 29.8 61.7 19.7 17.1 46 26.6 73.9 26.6 27.9 0 54.2-9.4 73.9-26.6 19.2-16.7 29.8-38.6 29.8-61.7v-20.6H524.6z" fill="#141414" /><path d="M561 720.1a67.3 30.3 0 1 0 134.6 0 67.3 30.3 0 1 0-134.6 0Z" fill="#966747" /><path d="M411.1 702.5m-62.4 0a62.4 62.4 0 1 0 124.8 0 62.4 62.4 0 1 0-124.8 0Z" fill="#D39E33" /><path d="M845.5 702.5m-62.4 0a62.4 62.4 0 1 0 124.8 0 62.4 62.4 0 1 0-124.8 0Z" fill="#D39E33" /><path d="M506.3 252.1c-7.8 0-15-5-17.5-12.8-0.6-1.8-13.7-43.5 6.4-81.3 12.4-23.4 34.1-39.7 64.4-48.6 9.8-2.8 20 2.8 22.8 12.5s-2.8 20-12.5 22.8c-20.4 5.9-34.5 16.1-42.1 30.2-12.8 23.9-4 52.8-4 53.1 3.1 9.7-2.2 20-11.9 23.1-1.8 0.7-3.7 1-5.6 1z" fill="#0F0F0F" /><path d="M631.7 262.5c-5.8 0-11.4-2.7-15-7.8-1-1.4-23.8-33.9-42.3-73.9-26.9-57.8-30.8-101.7-11.7-130.3 18.3-27.4 47.7-43.6 85-46.9 26.8-2.3 48.6 3 49.6 3.2 9.9 2.4 15.9 12.4 13.4 22.3-2.4 9.9-12.4 15.9-22.3 13.4-0.1 0-17.6-4.2-38.5-2.2-25.6 2.4-44.7 12.7-56.6 30.5-11.1 16.7-6.1 50.1 14.2 94.1 17.1 37 39 68.2 39.2 68.5 5.9 8.3 3.9 19.8-4.4 25.6-3.3 2.4-7 3.5-10.6 3.5z" fill="#0F0F0F" /><path d="M772.2 232.9l-36.4-5.6s0 0.1-0.1 0.4c0-0.4 1-10.4-6.1-26-12.3-27.3-38.7-49.3-58.8-63-8.4-5.7-10.6-17.2-4.8-25.6 5.7-8.4 17.2-10.6 25.6-4.8 36.5 24.9 61.1 52.5 73.2 82.1 9.6 23.4 7.8 39.5 7.4 42.5z" fill="#0F0F0F" /></svg>